#include "pitches.h"
 
int const TEMPO=1200;

int megalobania[] = {
  NOTE_D3, NOTE_D3, NOTE_D4, NOTE_A3, 0, NOTE_GS3, NOTE_G3, NOTE_F3, NOTE_D3, NOTE_F3, NOTE_G3, NOTE_C3,
  NOTE_C3, NOTE_D4, NOTE_A3, 0, NOTE_GS3, NOTE_G3, NOTE_F3, NOTE_D3, NOTE_F3, NOTE_G3, NOTE_B2, NOTE_B2,
  NOTE_D4, NOTE_A3, 0, NOTE_GS3, NOTE_G3, NOTE_F3, NOTE_D3, NOTE_F3, NOTE_G3, NOTE_AS2, NOTE_AS2, NOTE_D4, 
  NOTE_A3, 0, NOTE_GS3, NOTE_G3, NOTE_F3, NOTE_D3, NOTE_F3, NOTE_G3, NOTE_D3, NOTE_D3, NOTE_D4, NOTE_A3,
  0, NOTE_GS3, NOTE_G3, NOTE_F3, NOTE_D3, NOTE_F3, NOTE_G3, NOTE_C3, NOTE_C3, NOTE_D4, NOTE_A3, 0, NOTE_GS3,
  NOTE_G3, NOTE_F3, NOTE_D3, NOTE_F3, NOTE_G3, NOTE_B2, NOTE_B2, NOTE_D4, NOTE_A3, 0, NOTE_GS3, NOTE_G3, NOTE_F3,
  NOTE_D3, NOTE_F3, NOTE_G3, NOTE_AS2, NOTE_AS2, NOTE_D4, NOTE_A3, 0, NOTE_GS3, NOTE_G3, NOTE_F3, NOTE_D3,
  NOTE_F3, NOTE_G3, NOTE_D4, NOTE_D4, NOTE_D5, NOTE_A4, 0, NOTE_GS4, NOTE_G4, NOTE_F4, NOTE_D4, NOTE_F4,
  NOTE_G4, NOTE_C4, NOTE_C4, NOTE_D5, NOTE_A4, 0, NOTE_GS4, NOTE_G4, NOTE_F4, NOTE_D4, NOTE_F4, NOTE_G4,
  NOTE_B3, NOTE_B3, NOTE_D5, NOTE_A4, 0, NOTE_GS4, NOTE_G4, NOTE_F4, NOTE_D4, NOTE_F4, NOTE_G4, NOTE_AS3,
  NOTE_AS3, NOTE_D5, NOTE_A4, 0, NOTE_GS4, NOTE_G4, NOTE_F4, NOTE_D4, NOTE_F4, NOTE_G4, NOTE_D4, NOTE_D4,
  NOTE_AS3, NOTE_D5, NOTE_A4, 0, NOTE_GS4, NOTE_G4, NOTE_F4, NOTE_D4, NOTE_F4, NOTE_G4, NOTE_D4, NOTE_D4,
  NOTE_D5, NOTE_A4, 0, NOTE_GS4, NOTE_G4, NOTE_F4, NOTE_D4, NOTE_F4, NOTE_G4, NOTE_C4, NOTE_C4, NOTE_D5,
  NOTE_A4, 0, NOTE_GS4, NOTE_G4, NOTE_F4, NOTE_D4, NOTE_F4, NOTE_G4, NOTE_B3, NOTE_B3, NOTE_D5, NOTE_A4,
  0, NOTE_GS4, NOTE_G4, NOTE_F4, NOTE_D4, NOTE_F4, NOTE_G4, NOTE_AS3, NOTE_AS3, NOTE_D5, NOTE_A4, 0, NOTE_GS4,
  NOTE_G4, NOTE_F4, NOTE_D4, NOTE_F4, NOTE_G4, NOTE_F4, NOTE_F4, NOTE_F4, NOTE_F4, NOTE_F4, NOTE_D4, NOTE_D4, 
  NOTE_D4, NOTE_F4, NOTE_F4, NOTE_F4, NOTE_G4, NOTE_GS4, NOTE_G4, NOTE_F4, NOTE_D4, NOTE_F4, NOTE_G4, 0, NOTE_F4,
  NOTE_F4, NOTE_F4, NOTE_G4, NOTE_GS4, NOTE_A4, NOTE_C5, NOTE_A4, NOTE_D5, NOTE_D5, NOTE_D5, NOTE_A4,
  NOTE_D5, NOTE_C5, NOTE_F4, NOTE_F4, NOTE_F4, NOTE_F4, NOTE_F4, NOTE_D4, NOTE_D4, NOTE_D4, NOTE_F4, NOTE_F4,
  NOTE_F4, NOTE_F4, NOTE_D4, NOTE_F4, NOTE_E4, NOTE_D4, NOTE_C4, 0, NOTE_G4, NOTE_E4, NOTE_D4, NOTE_D4, NOTE_D4,
  NOTE_D4, NOTE_F3, NOTE_G3, NOTE_AS3, NOTE_C4, NOTE_D4, NOTE_F4, NOTE_C5, 0, NOTE_F4, NOTE_D4, NOTE_F4, NOTE_G4,
  NOTE_GS4, NOTE_G4, NOTE_F4, NOTE_D4, NOTE_GS4, NOTE_G4, NOTE_F4, NOTE_D4, NOTE_F4, NOTE_F4, NOTE_F4, NOTE_GS4};

int Duracion_notas[] = {
    16, 16, 8, 6, 32, 8, 8, 8, 16, 16, 16, 16, 16, 8, 6, 32, 8, 8, 8, 16, 16, 16, 16, 16, 8, 6, 32, 8, 8, 8, 16, 16, 16, 16, 16, 8, 6, 32, 8, 8, 8, 16, 16, 16, 16, 16, 8, 6, 32, 8, 8, 8, 16, 16, 16, 16, 16, 8, 6, 32, 8, 8, 8, 16, 16, 16, 16, 16, 8, 6, 32, 8, 8, 8, 16, 16, 16, 16, 16, 8, 6, 32, 8, 8, 8, 16, 16, 16, 16, 16, 8, 6, 32, 8, 8, 8, 16, 16, 16, 16, 16, 8, 6, 32, 8, 8, 8, 16, 16, 16, 16, 16, 8, 6, 32, 8, 8, 8, 16, 16, 16, 16, 16, 8, 6, 32, 8, 8, 8, 16, 16, 16, 16, 16, 8, 6, 32, 8, 8, 8, 16, 16, 16, 16, 16, 8, 6, 32, 8, 8, 8, 16, 16, 16, 16, 16, 8, 6, 32, 8, 8, 8, 16, 16, 16, 16, 16, 8, 6, 32, 8, 8, 8, 16, 16, 16, 8, 16, 8, 8, 8, 8, 4, 16, 8, 16, 8, 8, 8, 16, 16, 16, 16, 16, 8, 8, 16, 8, 8, 8, 8, 8, 8, 8, 8, 16, 16, 16, 2, 8, 16, 8, 8, 8, 8, 4, 16, 8, 16, 8, 8, 8, 8, 8, 16, 8, 16, 8, 8, 8, 8, 8, 8, 8, 16, 8, 15, 8, 8, 2, 3, 16, 16, 16, 16, 16, 16, 16, 16, 16, 16, 16, 16, 8, 2, 16, 8, 16, 8, 16, 16, 16, 16, 16, 16, 8, 8, 8, 8,  8, 8, 16, 16, 16, 2, 8, 8, 8, 8, 4, 4, 4, 4, 4, 4, 2, 8, 8, 8, 8, 2, 2, 3, 16, 16
  };
 

void setup() {
}
 
void loop() {  
  int Total_de_notas = sizeof(megalobania)/sizeof(megalobania[0]);
  for (int Nota_actual = 0; Nota_actual < Total_de_notas; Nota_actual++) {
    // pin8 output
    int Duracion_de_nota = TEMPO / Duracion_notas[Nota_actual];
    tone(8, megalobania[Nota_actual], Duracion_de_nota);
    
    // Retrardo entre notas
    int Pausa_entre_notas = Duracion_de_nota * 1.45;
    delay(Pausa_entre_notas);
    noTone(8);
  }
}
